<svg width="32" height="32" viewBox="0 0 32 32" fill="none" xmlns="http://www.w3.org/2000/svg">
<rect width="32" height="32" rx="16" fill="#C2C5DC" fill-opacity="0.9"/>
<path d="M11.022 20.9726C10.6538 20.6107 10.6665 19.9696 11.0093 19.6269L14.6401 15.996L11.0093 12.3778C10.6665 12.0287 10.6538 11.3939 11.022 11.0258C11.3901 10.6513 12.0312 10.664 12.374 11.0131L15.9985 14.6376L19.623 11.0131C19.9785 10.6576 20.6006 10.6576 20.9688 11.0258C21.3433 11.3939 21.3433 12.016 20.9814 12.3778L17.3633 15.996L20.9814 19.6205C21.3433 19.9823 21.3369 20.598 20.9688 20.9726C20.6069 21.3407 19.9785 21.3407 19.623 20.9853L15.9985 17.3607L12.374 20.9853C12.0312 21.3344 11.3965 21.3407 11.022 20.9726Z" fill="#0A0019"/>
</svg>
